<svg xmlns="http://www.w3.org/2000/svg" version="1.1" xmlns:xlink="http://www.w3.org/1999/xlink" viewBox="0 0 200 200"><rect width="200" height="200" fill="url('#gradient')"></rect><defs><linearGradient id="gradient" gradientTransform="rotate(198 0.5 0.5)"><stop offset="0%" stop-color="#7dabaa"></stop><stop offset="100%" stop-color="#f5e8ce"></stop></linearGradient></defs><g><g fill="#ffffff" transform="matrix(2.960717846460618,0,0,2.960717846460618,38.827506390098094,121.05007915011907)" stroke="#15374d" stroke-width="0.45"><path d="M1.07-14.22L5.58-14.22L8.75-4.33L11.91-14.22L16.43-14.22L16.43 0L12.99 0L12.99-3.32L13.32-10.12L9.88 0L7.62 0L4.17-10.13L4.50-3.32L4.50 0L1.07 0L1.07-14.22ZM27.56-8.30L27.56-5.66L22.03-5.66L22.03 0L18.60 0L18.60-14.22L28.12-14.22L28.12-11.57L22.03-11.57L22.03-8.30L27.56-8.30ZM36.57 0L35.74-2.66L31.04-2.66L30.22 0L26.56 0L31.78-14.22L35-14.22L40.25 0L36.57 0ZM33.39-10.23L31.87-5.30L34.92-5.30L33.39-10.23Z"></path></g></g></svg>